<svg width="26" height="39" viewBox="0 0 26 39" fill="none" xmlns="http://www.w3.org/2000/svg">
<path fill-rule="evenodd" clip-rule="evenodd" d="M22.7444 27.7255C21.3303 28.7094 19.6464 29.9706 18.4957 31.1177C17.3451 32.2649 16.0801 33.9437 15.0933 35.3535C14.6023 36.0549 14.1845 36.6834 13.8896 37.1365C13.7422 37.3629 13.6256 37.5453 13.546 37.6708C13.5063 37.7335 13.4757 37.782 13.4553 37.8147L13.4322 37.8516L13.4251 37.8629L12.9999 38.5488L12.5749 37.8635L12.5675 37.8516L12.5444 37.8147C12.524 37.782 12.4934 37.7335 12.4537 37.6708C12.3741 37.5453 12.2575 37.3629 12.1101 37.1365C11.8152 36.6834 11.3974 36.0549 10.9064 35.3535C9.91958 33.9437 8.65462 32.2649 7.50398 31.1177C6.35332 29.9706 4.66939 28.7094 3.25527 27.7255C2.55165 27.236 1.9212 26.8195 1.4668 26.5254C1.23967 26.3785 1.05673 26.2622 0.930849 26.1829C0.867914 26.1432 0.81926 26.1128 0.786495 26.0924L0.749474 26.0694L0.740284 26.0637L0.738085 26.0624L0.999853 25.6364C1.2622 25.2107 1.26225 25.2107 1.26231 25.2108L1.27614 25.2193L1.31522 25.2436C1.34939 25.2649 1.39951 25.2962 1.46398 25.3369C1.59291 25.4181 1.77925 25.5365 2.01006 25.6859C2.47154 25.9845 3.11158 26.4073 3.82638 26.9047C5.24909 27.8945 6.99374 29.197 8.21001 30.4095C9.42631 31.6222 10.7328 33.3616 11.7256 34.78C12.0113 35.1882 12.2725 35.5719 12.4999 35.9117L12.4999 0L13.4999 0L13.4999 35.9117C13.7272 35.5719 13.9884 35.1882 14.2741 34.78C15.2669 33.3616 16.5734 31.6222 17.7897 30.4095C19.006 29.197 20.7506 27.8945 22.1733 26.9047C22.8881 26.4073 23.5282 25.9845 23.9896 25.6859C24.2205 25.5365 24.4068 25.4181 24.5357 25.3369C24.6002 25.2962 24.6503 25.2649 24.6845 25.2436L24.7236 25.2193L24.7364 25.2114L24.7374 25.2108C24.7375 25.2107 24.7375 25.2107 24.9999 25.6364L25.2622 26.062L25.2502 26.0694L25.2132 26.0924C25.1804 26.1128 25.1318 26.1432 25.0689 26.1829C24.943 26.2622 24.76 26.3785 24.5329 26.5254C24.0785 26.8195 23.4481 27.236 22.7444 27.7255Z" fill="white"/>
</svg>
