<svg width="16" height="16" viewBox="0 0 16 16" fill="none" xmlns="http://www.w3.org/2000/svg">
<path fill-rule="evenodd" clip-rule="evenodd" d="M14.6697 0.626418L15.4547 0.442352L15.2706 1.2273L15.2701 1.22971L15.268 1.23869L15.2597 1.27546C15.2524 1.30794 15.2419 1.35576 15.2292 1.41579C15.2038 1.53602 15.1699 1.70433 15.136 1.89592C15.067 2.28736 15.0039 2.74537 15.0044 3.08894C15.0049 3.43255 15.0694 3.89082 15.1397 4.28251C15.1741 4.47423 15.2085 4.64266 15.2343 4.76299C15.2471 4.82306 15.2578 4.87092 15.2652 4.90343L15.2736 4.94023L15.2757 4.94923L15.2762 4.95125L14.3033 5.18242L14.3022 5.17791L14.2996 5.16655L14.29 5.12468C14.2818 5.08866 14.2703 5.03687 14.2565 4.9725C14.2289 4.84393 14.1922 4.66425 14.1554 4.45912C14.0833 4.05712 14.005 3.52672 14.0044 3.09046C14.0041 2.92704 14.0147 2.75043 14.0318 2.57233L8.93367 7.67047L8.22656 6.96336L13.3247 1.86522C13.1466 1.8823 12.97 1.89289 12.8066 1.89265C12.3703 1.89198 11.8399 1.81377 11.4379 1.74164C11.2328 1.70483 11.0531 1.66811 10.9245 1.64057C10.8602 1.62677 10.8084 1.61523 10.7724 1.60706L10.7305 1.59745L10.7191 1.5948L10.7147 1.59376L10.9454 0.620737L10.9478 0.621299L10.9568 0.6234L10.9936 0.631841C11.0261 0.639217 11.074 0.649888 11.134 0.66276C11.2544 0.688542 11.4228 0.722956 11.6145 0.757356C12.0062 0.827637 12.4645 0.892127 12.8081 0.892648C13.1517 0.893169 13.6097 0.830079 14.0011 0.760994C14.1927 0.72718 14.361 0.69328 14.4812 0.667867C14.5413 0.655179 14.5891 0.644654 14.6216 0.637378L14.6583 0.629051L14.6673 0.626979L14.6697 0.626418Z" fill="white"/>
<path fill-rule="evenodd" clip-rule="evenodd" d="M0.5 0.499992H6V1.49999H1.5V14.5H14.5V9.79999H15.5V15.5H0.5V0.499992Z" fill="white"/>
</svg>
