<svg width="277" height="312" viewBox="0 0 277 312" fill="none" xmlns="http://www.w3.org/2000/svg">
<g clip-path="url(#clip0)">
<path fill-rule="evenodd" clip-rule="evenodd" d="M183.217 34.4958C150.033 25.0688 114.504 28.6497 83.8679 44.508C53.2321 60.3665 29.7955 87.3091 18.3342 119.847C6.87291 152.383 8.24925 188.067 22.1824 219.625C36.1157 251.183 61.5574 276.24 93.3238 289.692C125.09 303.144 160.789 303.978 193.148 292.023C225.508 280.068 252.091 256.225 267.483 225.352L277 230.096C260.402 263.392 231.732 289.106 196.834 301.998C161.936 314.892 123.435 313.992 89.1766 299.485C54.9181 284.978 27.4802 257.954 12.4538 223.92C-2.57258 189.886 -4.0569 151.404 8.30368 116.313L13.319 118.079L8.30368 116.313C20.6643 81.2228 45.9398 52.1663 78.9791 35.0638C112.019 17.9611 150.336 14.0994 186.123 24.2659L183.217 34.4958Z" fill="white"/>
<path d="M115.928 170.044C115.928 189.265 111.625 198.259 105.03 204.784C93.879 215.883 80.852 224.922 66.5517 231.482C62.0934 232.924 57.4459 233.696 52.7612 233.775C47.894 233.775 39.8529 231.765 37.5604 228.027C36.4055 226.564 35.7546 224.768 35.7038 222.906C35.6501 221.044 36.2047 219.216 37.2783 217.692C40.644 213.587 44.6161 210.019 49.058 207.112C50.7723 206.795 52.5377 206.892 54.2073 207.394C60.2383 209.687 68.8437 216.6 71.8416 216.6C74.5017 216.532 77.091 215.727 79.3187 214.272C81.7353 211.81 83.1656 208.548 83.3397 205.102C84.7501 196.497 85.5966 168.669 85.5966 142.535V122.432C85.5966 109.523 85.3503 101.482 85.0328 96.0155C84.4687 86.5629 84.186 85.9985 72.971 82.2597C71.5602 81.413 71.2776 75.6647 72.688 74.7831C85.3497 68.7521 106.3 62.1567 111.484 59.2998C112.095 58.8362 112.828 58.5631 113.593 58.5135C114.358 58.4599 115.121 58.634 115.787 59.0185C116.348 59.2396 116.821 59.639 117.134 60.1548C117.446 60.6706 117.58 61.276 117.514 61.8753C117.514 68.929 115.787 94.3229 115.787 117.283L115.928 170.044Z" fill="white"/>
<path d="M119.104 270.606C132.893 266.868 135.787 265.703 137.762 253.359C139.795 230.847 140.666 208.245 140.371 185.643V158.662C140.68 147.055 140.101 135.441 138.643 123.921C138.078 121.347 136.068 120.183 128.062 118.737C127.18 118.737 124.323 113.306 126.334 111.013C138.131 102.743 150.402 95.1715 163.084 88.3356C165.253 87.4094 167.609 87.0105 169.961 87.1712C170.37 87.2386 170.741 87.45 171.006 87.7677C171.271 88.0853 171.414 88.4861 171.408 88.8998V108.121C180.014 104.382 204.103 93.8021 208.123 93.8021C220.068 94.0052 231.518 98.601 240.289 106.71C254.044 119.055 256.653 135.384 256.653 148.293C256.653 161.201 248.013 178.448 237.996 187.088C226.8 195.833 214.428 202.957 201.246 208.25C197.703 209.727 193.904 210.494 190.066 210.507C184.927 210.454 179.812 209.793 174.829 208.532C172.537 208.532 171.972 210.26 171.972 212.835C171.69 214.845 171.408 230.469 171.408 233.997C171.408 260.131 171.973 263.552 179.414 264.998C181.742 265.28 185.727 265.281 192.64 265.281C194.65 265.281 195.497 265.844 194.933 267.855L193.487 273.322C192.923 275.896 192.64 276.461 188.902 276.461C174.265 276.178 133.811 279.353 122.596 279.353C122.032 279.353 121.75 278.753 121.432 278.188L119.104 270.606ZM211.544 123.64C203.503 115.88 196.625 112.424 188.866 112.424C183.229 112.755 177.736 114.334 172.783 117.045C171.384 119.568 170.793 122.461 171.091 125.333V142.579C171.037 154.952 171.704 167.318 173.101 179.611C173.092 181.118 173.482 182.6 174.231 183.908C174.982 185.215 176.063 186.3 177.368 187.054C184.91 191.419 193.36 193.978 202.057 194.531C207.568 194.531 212.925 192.708 217.293 189.346C221.313 186.207 225.899 176.438 225.899 159.508C225.952 146.141 220.809 133.275 211.544 123.64V123.64Z" fill="white"/>
<path d="M73.8858 29.3764C71.9573 27.4483 71.9573 24.3223 73.8858 22.3941L94.8334 1.44618C96.7624 -0.482061 99.8881 -0.482061 101.816 1.44618L122.763 22.3941C124.691 24.3223 124.691 27.4483 122.763 29.3764L101.816 50.3243C99.8881 52.2526 96.7624 52.2526 94.8334 50.3243L73.8858 29.3764Z" fill="#DFE200"/>
<path fill-rule="evenodd" clip-rule="evenodd" d="M183.217 34.4958C150.033 25.0688 114.504 28.6497 83.8679 44.508C53.2321 60.3665 29.7955 87.3091 18.3342 119.847C6.87291 152.383 8.24925 188.067 22.1824 219.625C36.1157 251.183 61.5574 276.24 93.3238 289.692C125.09 303.144 160.789 303.978 193.148 292.023C225.508 280.068 252.091 256.225 267.483 225.352L277 230.096C260.402 263.392 231.732 289.106 196.834 301.998C161.936 314.892 123.435 313.992 89.1766 299.485C54.9181 284.978 27.4802 257.954 12.4538 223.92C-2.57258 189.886 -4.0569 151.404 8.30368 116.313C20.6643 81.2228 45.9398 52.1663 78.9791 35.0638C112.019 17.9611 150.336 14.0994 186.123 24.2659L183.217 34.4958Z" fill="white"/>
<path d="M73.8858 29.3764C71.9573 27.4483 71.9573 24.3223 73.8858 22.3941L94.8334 1.44618C96.7624 -0.482061 99.8881 -0.482061 101.816 1.44618L122.763 22.3941C124.691 24.3223 124.691 27.4483 122.763 29.3764L101.816 50.3243C99.8881 52.2526 96.7624 52.2526 94.8334 50.3243L73.8858 29.3764Z" fill="#DFE200"/>
</g>
<defs>
<clipPath id="clip0">
<rect width="277" height="311.057" fill="white"/>
</clipPath>
</defs>
</svg>
