<svg width="356" height="393" viewBox="0 0 356 393" fill="none" xmlns="http://www.w3.org/2000/svg">
<path fill-rule="evenodd" clip-rule="evenodd" d="M0 35.262H356V40.7121H0V35.262Z" fill="white"/>
<path fill-rule="evenodd" clip-rule="evenodd" d="M17.0581 374.203V18.2031H22.5082V374.203H17.0581Z" fill="white"/>
<path fill-rule="evenodd" clip-rule="evenodd" d="M356 357.145H0V351.695H356V357.145Z" fill="white"/>
<path d="M131.294 221.492C131.294 251.195 124.644 265.092 114.453 275.175C97.2209 292.327 77.0905 306.294 54.9922 316.432C48.1029 318.659 40.9216 319.853 33.6823 319.975C26.1612 319.975 13.735 316.868 10.1925 311.091C8.40812 308.832 7.40166 306.057 7.32309 303.179C7.24452 300.301 8.09803 297.475 9.75645 295.122C14.9575 288.778 21.0959 283.265 27.9598 278.772C30.6091 278.283 33.3369 278.432 35.9169 279.208C45.2366 282.751 58.5348 293.433 63.1674 293.433C67.2782 293.331 71.2792 292.085 74.7216 289.836C78.4555 286.031 80.6659 280.99 80.9347 275.666C83.1147 262.367 84.4227 219.366 84.4227 178.981V147.915C84.4227 127.968 84.0412 115.542 83.5507 107.094C82.6787 92.488 82.2427 91.616 64.9114 85.8389C62.7314 84.5309 62.2953 75.6472 64.4754 74.2847C84.0412 64.965 116.415 54.7734 124.426 50.3588C125.37 49.6431 126.504 49.2204 127.685 49.1428C128.867 49.0653 130.046 49.3366 131.075 49.9228C131.943 50.264 132.675 50.8809 133.157 51.6786C133.64 52.4763 133.847 53.4105 133.746 54.3374C133.746 65.2376 131.075 104.478 131.075 139.958L131.294 221.492Z" fill="white"/>
<path d="M237.461 31.8285C237.461 52.1029 221.11 71.1782 205.087 71.1782C189.064 71.1782 169.171 55.5909 169.171 38.8047C169.171 16.1868 183.069 0 204.488 0C225.906 0 237.461 23.7079 237.461 31.8285Z" fill="#DFE200"/>
<path d="M136.199 378.672C157.509 372.895 161.978 371.096 165.03 352.021C168.173 317.233 169.519 282.306 169.063 247.379V205.686C169.538 187.75 168.646 169.803 166.392 152.003C165.52 148.024 162.414 146.226 150.042 143.991C148.68 143.991 144.265 135.598 147.372 132.055C165.602 119.276 184.564 107.575 204.162 97.0113C207.512 95.5804 211.154 94.964 214.789 95.2127C215.42 95.317 215.992 95.6437 216.402 96.1337C216.812 96.6237 217.032 97.2444 217.024 97.8832V127.586C230.322 121.809 267.546 105.459 273.759 105.459C292.216 105.774 309.91 112.875 323.464 125.406C344.719 144.482 348.753 169.715 348.753 189.663C348.753 209.61 335.4 236.261 319.922 249.614C302.621 263.126 283.503 274.134 263.132 282.314C257.657 284.597 251.787 285.782 245.855 285.802C237.913 285.724 230.009 284.699 222.31 282.75C218.768 282.75 217.896 285.421 217.896 289.4C217.46 292.506 217.024 316.65 217.024 322.1C217.024 362.485 217.896 367.772 229.396 370.006C232.993 370.442 239.151 370.442 249.833 370.442C252.94 370.442 254.248 371.314 253.376 374.421L251.141 382.869C250.269 386.847 249.833 387.719 244.056 387.719C221.438 387.283 158.926 392.188 141.595 392.188C140.723 392.188 140.287 391.262 139.796 390.39L136.199 378.672ZM279.046 151.567C266.62 139.576 255.992 134.235 244.002 134.235C235.291 134.747 226.803 137.186 219.149 141.375C216.988 145.276 216.075 149.746 216.533 154.183V180.834C216.444 199.953 217.481 219.062 219.64 238.06C219.626 240.388 220.229 242.678 221.387 244.698C222.546 246.718 224.218 248.395 226.234 249.559C237.889 256.305 250.947 260.259 264.385 261.114C272.902 261.115 281.181 258.298 287.929 253.102C294.143 248.251 301.228 233.155 301.228 206.994C301.319 186.337 293.363 166.457 279.046 151.567V151.567Z" fill="white"/>
</svg>
