<?xml version="1.0" encoding="UTF-8" standalone="no"?>
<svg
   xmlns:dc="http://purl.org/dc/elements/1.1/"
   xmlns:cc="http://creativecommons.org/ns#"
   xmlns:rdf="http://www.w3.org/1999/02/22-rdf-syntax-ns#"
   xmlns:svg="http://www.w3.org/2000/svg"
   xmlns="http://www.w3.org/2000/svg"
   width="16.493279mm"
   height="18.520824mm"
   viewBox="0 0 16.493279 18.520824"
   version="1.1"
   id="svg859">
  <defs
     id="defs853" />
  <metadata
     id="metadata856">
    <rdf:RDF>
      <cc:Work
         rdf:about="">
        <dc:format>image/svg+xml</dc:format>
        <dc:type
           rdf:resource="http://purl.org/dc/dcmitype/StillImage" />
        <dc:title></dc:title>
      </cc:Work>
    </rdf:RDF>
  </metadata>
  <g
     id="layer1"
     transform="translate(65.69902,-67.090778)">
    <path
       fill-rule="evenodd"
       clip-rule="evenodd"
       d="m -54.789826,69.144479 c -1.975829,-0.561303 -4.091358,-0.348093 -5.915475,0.596154 -1.824143,0.944245 -3.219619,2.548493 -3.902053,4.485825 -0.682435,1.937359 -0.600485,4.062016 0.229134,5.94106 0.82962,1.879018 2.344473,3.371056 4.235926,4.172003 1.891427,0.800947 4.017063,0.850583 5.943838,0.138774 1.926749,-0.711808 3.509592,-2.131483 4.426003,-3.969755 l 0.566711,0.282495 c -0.988324,1.982497 -2.695363,3.513588 -4.773295,4.28125 -2.077931,0.767635 -4.370361,0.71411 -6.410192,-0.149675 -2.039832,-0.863812 -3.673547,-2.472875 -4.568259,-4.499346 -0.894709,-2.02647 -0.98309,-4.317841 -0.24711,-6.407176 l 0.298622,0.105172 -0.298622,-0.105172 c 0.735981,-2.089361 2.240946,-3.819472 4.208203,-4.837792 1.96723,-1.018334 4.248732,-1.248273 6.379607,-0.642927 z"
       fill="#ffffff"
       id="path2"
       style="stroke-width:0.264583;fill:#181818;fill-opacity:1" />
    <path
       d="m -58.796411,77.386007 c 0,1.144481 -0.256196,1.679971 -0.648891,2.068486 -0.663972,0.660876 -1.439624,1.199065 -2.291106,1.589696 -0.265457,0.0858 -0.542184,0.131789 -0.821108,0.136498 -0.289798,0 -0.768591,-0.119697 -0.905095,-0.342291 -0.06876,-0.08705 -0.107521,-0.193993 -0.110553,-0.30488 -0.0032,-0.11086 0.02983,-0.219763 0.09376,-0.310435 0.200403,-0.244449 0.436911,-0.456883 0.701389,-0.63 0.102076,-0.01884 0.207195,-0.01307 0.306599,0.01685 0.359119,0.136499 0.871511,0.548085 1.049999,0.548085 0.15838,-0.004 0.312579,-0.05194 0.445214,-0.138616 0.143881,-0.146579 0.22905,-0.340809 0.239395,-0.545994 0.08401,-0.512388 0.134409,-2.169288 0.134409,-3.725382 v -1.197001 c 0,-0.768615 -0.01468,-1.247431 -0.03358,-1.572895 -0.0336,-0.562822 -0.05043,-0.596424 -0.718185,-0.819044 -0.084,-0.0504 -0.100832,-0.392695 -0.01685,-0.445188 0.753904,-0.359093 2.001309,-0.751787 2.309998,-0.921914 0.03638,-0.0276 0.08006,-0.04384 0.125598,-0.04681 0.04554,-0.0032 0.09094,0.0072 0.130598,0.03006 0.03342,0.01318 0.0616,0.03696 0.08022,0.06765 0.0186,0.03072 0.02656,0.06678 0.02267,0.102446 0,0.42 -0.102923,1.932014 -0.102923,3.299143 z"
       fill="#ffffff"
       id="path4"
       style="stroke-width:0.264583;fill:#181818;fill-opacity:1" />
    <path
       d="m -58.607208,83.373686 c 0.821082,-0.22262 0.993326,-0.291941 1.110906,-1.026927 0.1211,-1.340432 0.172959,-2.686209 0.15539,-4.032012 V 76.70825 c 0.01836,-0.691118 -0.01611,-1.382633 -0.102896,-2.068512 -0.03358,-0.1533 -0.153273,-0.222594 -0.63,-0.308716 -0.05249,0 -0.222594,-0.323374 -0.102896,-0.459873 0.702416,-0.492416 1.433089,-0.943292 2.188183,-1.350327 0.129117,-0.05511 0.269479,-0.07887 0.409522,-0.06929 0.02434,0.004 0.04636,0.01659 0.06215,0.03548 0.0158,0.01892 0.02431,0.04276 0.024,0.06742 v 1.144481 c 0.512392,-0.222594 1.946698,-0.852593 2.186093,-0.852593 0.7112,0.01212 1.392978,0.28575 1.915213,0.768588 0.819018,0.735039 0.974408,1.70733 0.974408,2.475918 0,0.768615 -0.514509,1.795516 -1.110907,2.310024 -0.666644,0.520621 -1.403297,0.944801 -2.18821,1.259999 -0.210952,0.08795 -0.437144,0.133641 -0.665718,0.134408 -0.30599,-0.0032 -0.610526,-0.04252 -0.907203,-0.117607 -0.136499,0 -0.170101,0.102897 -0.170101,0.256196 -0.01683,0.119698 -0.03357,1.049999 -0.03357,1.260025 0,1.556094 0.03357,1.759771 0.4767,1.845892 0.138588,0.01683 0.375867,0.01685 0.787479,0.01685 0.119697,0 0.170127,0.03358 0.136525,0.1533 l -0.0861,0.325464 c -0.03358,0.1533 -0.05043,0.186928 -0.272998,0.186928 -0.871537,-0.01683 -3.280251,0.172191 -3.948033,0.172191 -0.03358,0 -0.0504,-0.03567 -0.06932,-0.06932 z m 5.504101,-8.750749 c -0.47879,-0.461989 -0.888286,-0.667809 -1.350301,-0.667809 -0.335624,0.01971 -0.662676,0.113692 -0.95758,0.275114 -0.08329,0.15031 -0.118481,0.322554 -0.100806,0.493501 v 1.026901 c -0.0032,0.736705 0.03654,1.472988 0.119697,2.20501 -5.29e-4,0.08969 0.02273,0.177959 0.06731,0.2558 0.04466,0.07787 0.109088,0.142451 0.186769,0.187298 0.449051,0.259927 0.952236,0.412274 1.470025,0.445188 0.32819,5.3e-5 0.647145,-0.108506 0.907204,-0.308689 0.239421,-0.186902 0.512418,-0.768588 0.512418,-1.776624 0.0032,-0.79592 -0.303053,-1.561941 -0.854736,-2.13569 z"
       fill="#ffffff"
       id="path6"
       style="stroke-width:0.264583;fill:#181818;fill-opacity:1" />
    <path
       d="m -61.299608,68.839923 c -0.114802,-0.114806 -0.114802,-0.300958 0,-0.415772 l 1.247299,-1.247264 c 0.114803,-0.114812 0.300964,-0.114812 0.41574,0 l 1.247299,1.247264 c 0.114776,0.114814 0.114776,0.300966 0,0.415772 l -1.247299,1.247261 c -0.114776,0.11483 -0.300937,0.11483 -0.41574,0 z"
       fill="#dfe200"
       id="path8"
       style="stroke-width:0.264583" />
  </g>
</svg>
